<?xml version="1.0" encoding="UTF-8"?>
<svg width="301px" height="76px" viewBox="0 0 301 76" version="1.1" xmlns="http://www.w3.org/2000/svg" xmlns:xlink="http://www.w3.org/1999/xlink">
    <!-- Generator: Sketch 52 (66869) - http://www.bohemiancoding.com/sketch -->
    <title>Artboard Copy 17</title>
    <desc>Created with Sketch.</desc>
    <defs>
        <path d="M20.2463822,13.4080138 C19.7499337,13.2489309 19.2206119,13.1630245 18.6711771,13.1630245 C15.8293407,13.1630245 13.5255771,15.4612422 13.5255771,18.2962374 C13.5255771,20.1589902 14.5201662,21.7900035 16.0084764,22.6896149 C15.3422557,24.3182689 14.7715712,25.7587741 14.2963572,27.0113481 L13.8780299,28.1139797 L14.9937524,27.725261 C16.157152,27.3199314 16.9778788,27.0097985 17.4645529,26.7906797 C17.7848376,26.6464756 18.0962245,26.4944866 18.4015026,26.3343325 C18.8937619,26.0760848 19.3558605,25.8047709 19.8351755,25.499277 C20.0177549,25.3829091 20.1949794,25.2667566 20.4070952,25.1252938 C20.4529846,25.0946896 20.796765,24.8643192 20.88747,24.8042065 C22.624339,23.6531349 24.1210319,22.3154893 25.4107696,20.8117618 C26.5082916,19.5321419 27.4320555,18.1624042 28.2340102,16.6886757 C28.8462579,15.563566 29.5520438,13.7902005 30.049172,11.8955421 C30.680943,9.4877324 30.9430702,7.06902535 30.7226219,4.7526838 C34.4276413,8.10665697 36.7542857,12.9487257 36.7542857,18.3329032 C36.7542857,28.4578861 28.5265586,36.6658065 18.3771429,36.6658065 C14.0249439,36.6658065 10.0261057,35.1565309 6.87786114,32.6340155 C6.80210642,30.906058 6.9842482,29.0646892 7.40205657,27.1673318 C8.03204715,24.3064095 9.18076585,21.4536651 10.5051308,19.2783943 C12.4034865,16.1603429 15.3498159,13.6243611 19.2376528,11.7902651 C19.6955094,11.5742701 20.3509108,11.3094347 21.2013157,10.9971639 C20.7829415,12.1171701 20.4640013,12.922137 20.2463822,13.4080138 Z M17.0087509,23.1556453 C17.5302481,23.3331454 18.0894389,23.4294503 18.6711771,23.4294503 C21.5130136,23.4294503 23.8167771,21.1312326 23.8167771,18.2962374 C23.8167771,16.4002297 22.7863591,14.7443097 21.2536982,13.8553809 C21.5511796,13.1909027 22.0132648,11.9991845 22.6441046,10.2713167 L23.041844,9.18191003 L21.9444868,9.56380081 C20.5061555,10.0643538 19.4490646,10.4737659 18.7662786,10.7958717 C14.6901309,12.7188038 11.5777041,15.39775 9.56270924,18.7073812 C8.17550152,20.9858714 6.98122282,23.9517601 6.32510715,26.9313222 C5.96823381,28.5519606 5.77476231,30.1389806 5.7591572,31.661411 C2.21291896,28.3191739 0,23.5838439 0,18.3329032 C0,8.20792035 8.22772711,0 18.3771429,0 C22.5744347,0 26.4430723,1.40374875 29.5370493,3.76631363 C29.5405618,4.02160307 29.5471446,4.18150502 29.5568789,4.25323355 C29.8764134,6.60776267 29.6393146,9.11367263 28.98248,11.617005 C28.5079603,13.4254973 27.8350614,15.1162306 27.2649613,16.1638869 C26.4983138,17.5727326 25.6174626,18.8788402 24.5729652,20.0966377 C23.348097,21.5247328 21.9274915,22.7943765 20.27733,23.8879845 C20.183811,23.9499621 19.8380926,24.1816312 19.7942897,24.210844 C19.5880081,24.3484159 19.4168132,24.4606165 19.2415292,24.5723347 C18.7868796,24.862108 18.3510444,25.1180018 17.888288,25.3607717 C17.6022787,25.5108171 17.310746,25.6531152 17.0109671,25.7880868 C16.7289112,25.9150788 16.3102129,26.080897 15.7570024,26.2845077 C16.1270441,25.3346848 16.5443012,24.2917056 17.0087509,23.1556453 Z" id="path-1"></path>
    </defs>
    <g id="Artboard-Copy-17" stroke="none" stroke-width="1" fill="none" fill-rule="evenodd">
        <rect id="Rectangle" fill="#101010" x="0" y="-13" width="301" height="100"></rect>
        <g id="Group-4" transform="translate(149.000000, 19.000000)">
            <g id="Path-7-+-Oval-Mask" transform="translate(18.377143, 18.332903) scale(-1, -1) translate(-18.377143, -18.332903) ">
                <mask id="mask-2" fill="white">
                    <use xlink:href="#path-1"></use>
                </mask>
                <use id="Combined-Shape" fill="#FFFFFF" xlink:href="#path-1"></use>
            </g>
            <text id="SYSTEM-CORP." font-family="Helvetica-Bold, Helvetica" font-size="11.4838115" font-weight="bold" letter-spacing="0.3588691" fill="#FFFFFF">
                <tspan x="44.3948692" y="23.2219355">SYSTEM CORP.</tspan>
            </text>
        </g>
        <text id="Designed-in" font-family="Roboto-Medium, Roboto" font-size="20" font-weight="400" fill="#FFFFFF">
            <tspan x="24" y="45">Designed in</tspan>
        </text>
        <path d="M135.5,17 L135.5,57" id="Path-57" stroke="#FFFFFF"></path>
    </g>
</svg>