<?xml version="1.0" encoding="UTF-8"?>
<svg width="1920px" height="1200px" viewBox="0 0 1920 1200" version="1.1" xmlns="http://www.w3.org/2000/svg" xmlns:xlink="http://www.w3.org/1999/xlink">
    <!-- Generator: Sketch 54.1 (76490) - https://sketchapp.com -->
    <title>Group 10</title>
    <desc>Created with Sketch.</desc>
    <g id="Partial-Assets---Single-Elements" stroke="none" stroke-width="1" fill="none" fill-rule="evenodd">
        <g id="Group-10">
            <rect id="Rectangle" stroke="#979797" fill="#101010" x="0.5" y="0.5" width="1919" height="1199"></rect>
            <path d="M591.285608,651 L569.312951,651 L569.312951,544.359375 L591.285608,544.359375 L591.285608,651 Z M628.58391,571.751953 L629.243089,580.907227 C634.90718,573.827113 642.499878,570.287109 652.02141,570.287109 C660.419889,570.287109 666.669827,572.752905 670.77141,577.68457 C674.872993,582.616236 676.972581,589.989209 677.070238,599.803711 L677.070238,651 L655.903246,651 L655.903246,600.316406 C655.903246,595.824196 654.926693,592.564952 652.973558,590.538574 C651.020423,588.512197 647.773386,587.499023 643.232347,587.499023 C637.275286,587.499023 632.807557,590.038061 629.829027,595.116211 L629.829027,651 L608.662035,651 L608.662035,571.751953 L628.58391,571.751953 Z M724.915415,635.399414 C728.821685,635.399414 731.995481,634.325206 734.436899,632.176758 C736.878318,630.02831 738.147836,627.171893 738.245493,623.607422 L758.094126,623.607422 C758.045298,628.978542 756.580469,633.897927 753.699595,638.365723 C750.818721,642.833518 746.875889,646.300281 741.870981,648.766113 C736.866074,651.231946 731.336344,652.464844 725.281626,652.464844 C713.953444,652.464844 705.017987,648.863806 698.474985,641.661621 C691.931984,634.459437 688.660532,624.510806 688.660532,611.81543 L688.660532,610.423828 C688.660532,598.216736 691.90757,588.475622 698.401743,581.200195 C704.895916,573.924768 713.80696,570.287109 725.135142,570.287109 C735.047301,570.287109 742.993998,573.106905 748.975474,578.746582 C754.956949,584.386259 757.996469,591.893508 758.094126,601.268555 L738.245493,601.268555 C738.147836,597.166972 736.878318,593.834485 734.436899,591.270996 C731.995481,588.707507 728.772857,587.425781 724.768931,587.425781 C719.837265,587.425781 716.114158,589.220197 713.599497,592.809082 C711.084836,596.397967 709.827524,602.220663 709.827524,610.277344 L709.827524,612.474609 C709.827524,620.628947 711.072629,626.488263 713.562876,630.052734 C716.053123,633.617205 719.837265,635.399414 724.915415,635.399414 Z M805.49985,652.464844 C793.878698,652.464844 784.418344,648.900426 777.118502,641.771484 C769.818661,634.642542 766.168795,625.145567 766.168795,613.280273 L766.168795,611.229492 C766.168795,603.270468 767.706866,596.15384 770.783053,589.879395 C773.85924,583.604949 778.217107,578.771013 783.856784,575.377441 C789.49646,571.98387 795.929501,570.287109 803.1561,570.287109 C813.995998,570.287109 822.528628,573.705044 828.754245,580.541016 C834.979862,587.376987 838.092623,597.069273 838.092623,609.618164 L838.092623,618.260742 L787.628756,618.260742 C788.312353,623.436549 790.375321,627.586898 793.817721,630.711914 C797.260121,633.83693 801.617988,635.399414 806.891452,635.399414 C815.045789,635.399414 821.417796,632.445342 826.007663,626.537109 L836.408053,638.182617 C833.234209,642.674827 828.937377,646.17821 823.517428,648.692871 C818.097479,651.207532 812.09168,652.464844 805.49985,652.464844 Z M803.082858,587.425781 C798.883618,587.425781 795.47789,588.841783 792.865573,591.673828 C790.253255,594.505874 788.580908,598.558567 787.848483,603.832031 L817.291842,603.832031 L817.291842,602.147461 C817.194185,597.459938 815.924667,593.834485 813.483248,591.270996 C811.04183,588.707507 807.575068,587.425781 803.082858,587.425781 Z M920.288387,612.108398 C920.288387,624.315491 917.517418,634.093225 911.975398,641.441895 C906.433378,648.790564 898.950543,652.464844 889.526668,652.464844 C881.518815,652.464844 875.049153,649.681668 870.117488,644.115234 L870.117488,681.46875 L848.950496,681.46875 L848.950496,571.751953 L868.579402,571.751953 L869.311824,579.515625 C874.438803,573.36325 881.128189,570.287109 889.380183,570.287109 C899.145857,570.287109 906.738555,573.900354 912.158504,581.126953 C917.578453,588.353552 920.288387,598.31439 920.288387,611.009766 L920.288387,612.108398 Z M899.121394,610.570312 C899.121394,603.197229 897.815255,597.508809 895.202937,593.504883 C892.59062,589.500957 888.794271,587.499023 883.813777,587.499023 C877.173119,587.499023 872.607735,590.038061 870.117488,595.116211 L870.117488,627.5625 C872.705392,632.787135 877.319603,635.399414 883.960262,635.399414 C894.067734,635.399414 899.121394,627.12313 899.121394,610.570312 Z M957.586689,552.269531 L957.586689,571.751953 L971.136493,571.751953 L971.136493,587.279297 L957.586689,587.279297 L957.586689,626.830078 C957.586689,629.75978 958.148207,631.859369 959.271259,633.128906 C960.394312,634.398444 962.542728,635.033203 965.716572,635.033203 C968.060333,635.033203 970.135508,634.862306 971.942158,634.520508 L971.942158,650.560547 C967.791746,651.830084 963.519328,652.464844 959.124775,652.464844 C944.28095,652.464844 936.712667,644.969802 936.419697,629.979492 L936.419697,587.279297 L924.847431,587.279297 L924.847431,571.751953 L936.419697,571.751953 L936.419697,552.269531 L957.586689,552.269531 Z M1004.11351,651 L982.873272,651 L982.873272,571.751953 L1004.11351,571.751953 L1004.11351,651 Z M981.628155,551.244141 C981.628155,548.070297 982.690156,545.458018 984.81419,543.407227 C986.938224,541.356435 989.831262,540.331055 993.493389,540.331055 C997.106689,540.331055 999.987519,541.356435 1002.13597,543.407227 C1004.28442,545.458018 1005.35862,548.070297 1005.35862,551.244141 C1005.35862,554.466813 1004.27221,557.103505 1002.09935,559.154297 C999.926484,561.205088 997.05786,562.230469 993.493389,562.230469 C989.928918,562.230469 987.060295,561.205088 984.887432,559.154297 C982.71457,557.103505 981.628155,554.466813 981.628155,551.244141 Z M1017.0954,610.643555 C1017.0954,602.782187 1018.60906,595.775421 1021.63642,589.623047 C1024.66378,583.470672 1029.02164,578.709978 1034.71015,575.34082 C1040.39865,571.971663 1047.00259,570.287109 1054.52216,570.287109 C1065.21557,570.287109 1073.94351,573.558561 1080.70624,580.101562 C1087.46897,586.644564 1091.24091,595.531194 1092.02216,606.761719 L1092.16864,612.181641 C1092.16864,624.339905 1088.77512,634.093225 1081.98798,641.441895 C1075.20084,648.790564 1066.09448,652.464844 1054.66864,652.464844 C1043.24281,652.464844 1034.12425,648.802771 1027.31269,641.478516 C1020.50113,634.15426 1017.0954,624.193422 1017.0954,611.595703 L1017.0954,610.643555 Z M1038.26239,612.181641 C1038.26239,619.701209 1039.6784,625.450664 1042.51044,629.430176 C1045.34249,633.409688 1049.39518,635.399414 1054.66864,635.399414 C1059.79562,635.399414 1063.79949,633.434102 1066.68036,629.503418 C1069.56124,625.572734 1071.00165,619.286176 1071.00165,610.643555 C1071.00165,603.270471 1069.56124,597.557637 1066.68036,593.504883 C1063.79949,589.452128 1059.7468,587.425781 1054.52216,587.425781 C1049.34635,587.425781 1045.34249,589.439921 1042.51044,593.468262 C1039.6784,597.496602 1038.26239,603.734333 1038.26239,612.181641 Z M1123.53433,571.751953 L1124.19351,580.907227 C1129.8576,573.827113 1137.4503,570.287109 1146.97183,570.287109 C1155.37031,570.287109 1161.62025,572.752905 1165.72183,577.68457 C1169.82341,582.616236 1171.923,589.989209 1172.02066,599.803711 L1172.02066,651 L1150.85367,651 L1150.85367,600.316406 C1150.85367,595.824196 1149.87711,592.564952 1147.92398,590.538574 C1145.97084,588.512197 1142.72381,587.499023 1138.18277,587.499023 C1132.22571,587.499023 1127.75798,590.038061 1124.77945,595.116211 L1124.77945,651 L1103.61245,651 L1103.61245,571.751953 L1123.53433,571.751953 Z M1227.70275,624.55957 L1251.87267,544.359375 L1276.33556,544.359375 L1239.20177,651 L1216.27697,651 L1179.28966,544.359375 L1203.67931,544.359375 L1227.70275,624.55957 Z M1345.56746,610.863281 L1357.65242,610.863281 L1357.65242,627.928711 L1345.56746,627.928711 L1345.56746,651 L1324.40047,651 L1324.40047,627.928711 L1280.67488,627.928711 L1279.72273,614.598633 L1324.18074,544.359375 L1345.56746,544.359375 L1345.56746,610.863281 Z M1300.81648,610.863281 L1324.40047,610.863281 L1324.40047,573.216797 L1323.00886,575.633789 L1300.81648,610.863281 Z" id="InceptionV4" fill="#FFFFFF" fill-rule="nonzero"></path>
            <path d="M440.008942,735.569336 L424.603668,735.569336 L424.603668,748.166992 L442.499176,748.166992 L442.499176,752 L419.916168,752 L419.916168,716.453125 L442.255036,716.453125 L442.255036,720.310547 L424.603668,720.310547 L424.603668,731.736328 L440.008942,731.736328 L440.008942,735.569336 Z M454.553338,745.87207 L461.096307,725.583984 L465.710564,725.583984 L456.237908,752 L452.795525,752 L443.225213,725.583984 L447.839471,725.583984 L454.553338,745.87207 Z M467.339921,738.547852 C467.339921,735.959948 467.848542,733.632497 468.8658,731.56543 C469.883058,729.498362 471.299059,727.903326 473.113847,726.780273 C474.928635,725.657221 476.99974,725.095703 479.327226,725.095703 C482.924249,725.095703 485.833562,726.340808 488.055253,728.831055 C490.276944,731.321302 491.387773,734.633443 491.387773,738.767578 L491.387773,739.084961 C491.387773,741.656588 490.895427,743.963694 489.910722,746.006348 C488.926017,748.049001 487.518153,749.639968 485.687089,750.779297 C483.856025,751.918625 481.752368,752.488281 479.376054,752.488281 C475.795307,752.488281 472.894132,751.243177 470.672441,748.75293 C468.45075,746.262683 467.339921,742.966817 467.339921,738.865234 L467.339921,738.547852 Z M471.880937,739.084961 C471.880937,742.014663 472.560455,744.366528 473.919511,746.140625 C475.278567,747.914722 477.097397,748.801758 479.376054,748.801758 C481.670987,748.801758 483.493886,747.902516 484.844804,746.104004 C486.195722,744.305492 486.871171,741.7868 486.871171,738.547852 C486.871171,735.650702 486.183515,733.302906 484.808183,731.504395 C483.432851,729.705883 481.605883,728.806641 479.327226,728.806641 C477.097397,728.806641 475.298912,729.693676 473.931718,731.467773 C472.564524,733.241871 471.880937,735.780908 471.880937,739.084961 Z M500.805216,752 L496.288614,752 L496.288614,714.5 L500.805216,714.5 L500.805216,752 Z M515.593752,745.87207 L522.136721,725.583984 L526.750979,725.583984 L517.278322,752 L513.83594,752 L504.265627,725.583984 L508.879885,725.583984 L515.593752,745.87207 Z M540.587367,752.488281 C537.00662,752.488281 534.093237,751.312349 531.847132,748.960449 C529.601027,746.608549 528.477992,743.463236 528.477992,739.524414 L528.477992,738.694336 C528.477992,736.07388 528.978475,733.734223 529.979457,731.675293 C530.980438,729.616363 532.380164,728.005051 534.178675,726.841309 C535.977187,725.677566 537.926224,725.095703 540.025843,725.095703 C543.460105,725.095703 546.129349,726.226877 548.033656,728.489258 C549.937962,730.751639 550.890101,733.990539 550.890101,738.206055 L550.890101,740.085938 L532.994593,740.085938 C533.059698,742.690117 533.820595,744.793775 535.277308,746.396973 C536.734021,748.000171 538.585402,748.801758 540.831507,748.801758 C542.426568,748.801758 543.777465,748.47624 544.884242,747.825195 C545.991018,747.17415 546.959433,746.311529 547.789515,745.237305 L550.548304,747.385742 C548.334752,750.787452 545.014472,752.488281 540.587367,752.488281 Z M540.025843,728.806641 C538.202918,728.806641 536.672985,729.469883 535.436,730.796387 C534.199014,732.122891 533.434048,733.98241 533.141078,736.375 L546.3735,736.375 L546.3735,736.033203 C546.243291,733.73827 545.624807,731.96013 544.518031,730.69873 C543.411255,729.437331 541.913874,728.806641 540.025843,728.806641 Z M553.862231,738.572266 C553.862231,734.519511 554.822508,731.260266 556.743091,728.794434 C558.663673,726.328601 561.178297,725.095703 564.287036,725.095703 C567.3795,725.095703 569.829019,726.153635 571.635669,728.269531 L571.635669,714.5 L576.152271,714.5 L576.152271,752 L572.00188,752 L571.782153,749.167969 C569.975504,751.381521 567.46088,752.488281 564.238208,752.488281 C561.178297,752.488281 558.684018,751.235039 556.755298,748.728516 C554.826577,746.221993 553.862231,742.950541 553.862231,738.914062 L553.862231,738.572266 Z M558.378833,739.084961 C558.378833,742.079768 558.997316,744.423494 560.234302,746.116211 C561.471287,747.808928 563.180254,748.655273 565.361255,748.655273 C568.225853,748.655273 570.317303,747.369479 571.635669,744.797852 L571.635669,732.664062 C570.284751,730.173816 568.209576,728.928711 565.410083,728.928711 C563.19653,728.928711 561.471287,729.783195 560.234302,731.492188 C558.997316,733.20118 558.378833,735.73208 558.378833,739.084961 Z M613.541844,736.301758 L598.624851,736.301758 L598.624851,752 L593.937351,752 L593.937351,716.453125 L615.958836,716.453125 L615.958836,720.310547 L598.624851,720.310547 L598.624851,732.46875 L613.541844,732.46875 L613.541844,736.301758 Z M631.846005,729.636719 C631.162408,729.522786 630.421856,729.46582 629.624326,729.46582 C626.662071,729.46582 624.652,730.727201 623.594052,733.25 L623.594052,752 L619.077451,752 L619.077451,725.583984 L623.471982,725.583984 L623.545224,728.635742 C625.026351,726.275704 627.12594,725.095703 629.844052,725.095703 C630.722963,725.095703 631.390274,725.209634 631.846005,725.4375 L631.846005,729.636719 Z M633.157979,738.547852 C633.157979,735.959948 633.6666,733.632497 634.683858,731.56543 C635.701116,729.498362 637.117117,727.903326 638.931905,726.780273 C640.746693,725.657221 642.817798,725.095703 645.145284,725.095703 C648.742307,725.095703 651.65162,726.340808 653.873311,728.831055 C656.095002,731.321302 657.205831,734.633443 657.205831,738.767578 L657.205831,739.084961 C657.205831,741.656588 656.713485,743.963694 655.72878,746.006348 C654.744075,748.049001 653.336211,749.639968 651.505147,750.779297 C649.674083,751.918625 647.570426,752.488281 645.194112,752.488281 C641.613365,752.488281 638.71219,751.243177 636.490499,748.75293 C634.268808,746.262683 633.157979,742.966817 633.157979,738.865234 L633.157979,738.547852 Z M637.698995,739.084961 C637.698995,742.014663 638.378513,744.366528 639.737569,746.140625 C641.096625,747.914722 642.915455,748.801758 645.194112,748.801758 C647.489045,748.801758 649.311944,747.902516 650.662862,746.104004 C652.01378,744.305492 652.689229,741.7868 652.689229,738.547852 C652.689229,735.650702 652.001573,733.302906 650.626241,731.504395 C649.250909,729.705883 647.423941,728.806641 645.145284,728.806641 C642.915455,728.806641 641.11697,729.693676 639.749776,731.467773 C638.382582,733.241871 637.698995,735.780908 637.698995,739.084961 Z M665.964094,725.583984 L666.086164,728.513672 C668.023023,726.235015 670.635301,725.095703 673.923078,725.095703 C677.617758,725.095703 680.132382,726.511705 681.467024,729.34375 C682.345934,728.074212 683.489315,727.048832 684.897199,726.267578 C686.305084,725.486324 687.969293,725.095703 689.889875,725.095703 C695.684175,725.095703 698.630109,728.163706 698.727766,734.299805 L698.727766,752 L694.211164,752 L694.211164,734.568359 C694.211164,732.680329 693.779853,731.268397 692.917219,730.33252 C692.054584,729.396642 690.606031,728.928711 688.571516,728.928711 C686.895075,728.928711 685.503487,729.429194 684.396711,730.430176 C683.289935,731.431157 682.647038,732.777986 682.468,734.470703 L682.468,752 L677.926985,752 L677.926985,734.69043 C677.926985,730.849265 676.047121,728.928711 672.287336,728.928711 C669.325082,728.928711 667.298735,730.190092 666.208235,732.712891 L666.208235,752 L661.691633,752 L661.691633,725.583984 L665.964094,725.583984 Z M742.562651,747.336914 C741.358218,749.062183 739.677734,750.352047 737.521147,751.206543 C735.364561,752.061039 732.854007,752.488281 729.989409,752.488281 C727.092259,752.488281 724.52067,751.808763 722.274565,750.449707 C720.02846,749.090651 718.29101,747.15789 717.062163,744.651367 C715.833316,742.144844 715.202626,739.2396 715.170073,735.935547 L715.170073,732.834961 C715.170073,727.480116 716.419247,723.329767 718.917632,720.383789 C721.416017,717.437811 724.927538,715.964844 729.4523,715.964844 C733.163256,715.964844 736.14988,716.912914 738.412261,718.809082 C740.674642,720.70525 742.058092,723.394839 742.562651,726.87793 L737.875151,726.87793 C736.996241,722.17413 734.19679,719.822266 729.476714,719.822266 C726.335422,719.822266 723.955075,720.924956 722.335601,723.130371 C720.716126,725.335786 719.898263,728.529927 719.881987,732.712891 L719.881987,735.618164 C719.881987,739.605814 720.793437,742.775542 722.616362,745.127441 C724.439288,747.479341 726.905084,748.655273 730.013823,748.655273 C731.771645,748.655273 733.309715,748.459963 734.628081,748.069336 C735.946447,747.678709 737.036931,747.019536 737.899565,746.091797 L737.899565,738.108398 L729.672026,738.108398 L729.672026,734.299805 L742.562651,734.299805 L742.562651,747.336914 Z M747.317008,738.547852 C747.317008,735.959948 747.825629,733.632497 748.842887,731.56543 C749.860145,729.498362 751.276146,727.903326 753.090934,726.780273 C754.905722,725.657221 756.976827,725.095703 759.304313,725.095703 C762.901336,725.095703 765.810649,726.340808 768.03234,728.831055 C770.254031,731.321302 771.36486,734.633443 771.36486,738.767578 L771.36486,739.084961 C771.36486,741.656588 770.872514,743.963694 769.887809,746.006348 C768.903104,748.049001 767.49524,749.639968 765.664176,750.779297 C763.833112,751.918625 761.729455,752.488281 759.353141,752.488281 C755.772394,752.488281 752.871219,751.243177 750.649528,748.75293 C748.427837,746.262683 747.317008,742.966817 747.317008,738.865234 L747.317008,738.547852 Z M751.858024,739.084961 C751.858024,742.014663 752.537542,744.366528 753.896598,746.140625 C755.255654,747.914722 757.074484,748.801758 759.353141,748.801758 C761.648074,748.801758 763.470973,747.902516 764.821891,746.104004 C766.172809,744.305492 766.848258,741.7868 766.848258,738.547852 C766.848258,735.650702 766.160602,733.302906 764.78527,731.504395 C763.409938,729.705883 761.58297,728.806641 759.304313,728.806641 C757.074484,728.806641 755.275999,729.693676 753.908805,731.467773 C752.541611,733.241871 751.858024,735.780908 751.858024,739.084961 Z M774.678787,738.547852 C774.678787,735.959948 775.187408,733.632497 776.204666,731.56543 C777.221924,729.498362 778.637925,727.903326 780.452713,726.780273 C782.2675,725.657221 784.338606,725.095703 786.666092,725.095703 C790.263115,725.095703 793.172428,726.340808 795.394119,728.831055 C797.61581,731.321302 798.726639,734.633443 798.726639,738.767578 L798.726639,739.084961 C798.726639,741.656588 798.234293,743.963694 797.249588,746.006348 C796.264882,748.049001 794.857019,749.639968 793.025955,750.779297 C791.194891,751.918625 789.091234,752.488281 786.71492,752.488281 C783.134173,752.488281 780.232997,751.243177 778.011307,748.75293 C775.789616,746.262683 774.678787,742.966817 774.678787,738.865234 L774.678787,738.547852 Z M779.219803,739.084961 C779.219803,742.014663 779.899321,744.366528 781.258377,746.140625 C782.617433,747.914722 784.436263,748.801758 786.71492,748.801758 C789.009853,748.801758 790.832752,747.902516 792.18367,746.104004 C793.534588,744.305492 794.210037,741.7868 794.210037,738.547852 C794.210037,735.650702 793.522381,733.302906 792.147049,731.504395 C790.771716,729.705883 788.944749,728.806641 786.666092,728.806641 C784.436263,728.806641 782.637778,729.693676 781.270584,731.467773 C779.90339,733.241871 779.219803,735.780908 779.219803,739.084961 Z M802.162636,738.572266 C802.162636,734.454406 803.114775,731.178886 805.019081,728.745605 C806.923388,726.312325 809.446149,725.095703 812.587441,725.095703 C815.810113,725.095703 818.324736,726.235015 820.131386,728.513672 L820.351113,725.583984 L824.477089,725.583984 L824.477089,751.365234 C824.477089,754.78322 823.463916,757.476878 821.437538,759.446289 C819.411161,761.4157 816.68902,762.400391 813.271034,762.400391 C811.366728,762.400391 809.50314,761.993494 807.680214,761.179688 C805.857288,760.365881 804.465701,759.250984 803.505409,757.834961 L805.849159,755.125 C807.786018,757.51759 810.154159,758.713867 812.953652,758.713867 C815.150928,758.713867 816.863965,758.095384 818.092812,756.858398 C819.321659,755.621413 819.936074,753.879894 819.936074,751.633789 L819.936074,749.363281 C818.129424,751.446625 815.663628,752.488281 812.538613,752.488281 C809.446149,752.488281 806.943733,751.243177 805.031288,748.75293 C803.118844,746.262683 802.162636,742.869162 802.162636,738.572266 Z M806.703652,739.084961 C806.703652,742.063491 807.313997,744.403149 808.534706,746.104004 C809.755416,747.804859 811.464383,748.655273 813.661659,748.655273 C816.509981,748.655273 818.601431,747.361341 819.936074,744.773438 L819.936074,732.712891 C818.552603,730.190092 816.477429,728.928711 813.710488,728.928711 C811.513211,728.928711 809.796106,729.783195 808.55912,731.492188 C807.322135,733.20118 806.703652,735.73208 806.703652,739.084961 Z M835.554688,748.166992 L852.400391,748.166992 L852.400391,752 L830.842774,752 L830.842774,716.453125 L835.554688,716.453125 L835.554688,748.166992 Z M866.847131,752.488281 C863.266384,752.488281 860.353002,751.312349 858.106897,748.960449 C855.860792,746.608549 854.737756,743.463236 854.737756,739.524414 L854.737756,738.694336 C854.737756,736.07388 855.238239,733.734223 856.239221,731.675293 C857.240202,729.616363 858.639928,728.005051 860.43844,726.841309 C862.236951,725.677566 864.185988,725.095703 866.285608,725.095703 C869.71987,725.095703 872.389114,726.226877 874.29342,728.489258 C876.197726,730.751639 877.149865,733.990539 877.149865,738.206055 L877.149865,740.085938 L859.254358,740.085938 C859.319462,742.690117 860.080359,744.793775 861.537072,746.396973 C862.993785,748.000171 864.845167,748.801758 867.091272,748.801758 C868.686332,748.801758 870.03723,748.47624 871.144006,747.825195 C872.250782,747.17415 873.219197,746.311529 874.049279,745.237305 L876.808069,747.385742 C874.594516,750.787452 871.274236,752.488281 866.847131,752.488281 Z M866.285608,728.806641 C864.462682,728.806641 862.932749,729.469883 861.695764,730.796387 C860.458778,732.122891 859.693812,733.98241 859.400842,736.375 L872.633264,736.375 L872.633264,736.033203 C872.503055,733.73827 871.884571,731.96013 870.777795,730.69873 C869.671019,729.437331 868.173638,728.806641 866.285608,728.806641 Z M909.247972,752 L904.536058,752 L886.64055,724.607422 L886.64055,752 L881.928636,752 L881.928636,716.453125 L886.64055,716.453125 L904.584886,743.967773 L904.584886,716.453125 L909.247972,716.453125 L909.247972,752 Z M926.673228,752.488281 C923.09248,752.488281 920.179098,751.312349 917.932993,748.960449 C915.686888,746.608549 914.563853,743.463236 914.563853,739.524414 L914.563853,738.694336 C914.563853,736.07388 915.064336,733.734223 916.065317,731.675293 C917.066299,729.616363 918.466025,728.005051 920.264536,726.841309 C922.063048,725.677566 924.012084,725.095703 926.111704,725.095703 C929.545966,725.095703 932.21521,726.226877 934.119517,728.489258 C936.023823,730.751639 936.975962,733.990539 936.975962,738.206055 L936.975962,740.085938 L919.080454,740.085938 C919.145559,742.690117 919.906456,744.793775 921.363169,746.396973 C922.819882,748.000171 924.671263,748.801758 926.917368,748.801758 C928.512428,748.801758 929.863326,748.47624 930.970103,747.825195 C932.076879,747.17415 933.045294,746.311529 933.875376,745.237305 L936.634165,747.385742 C934.420612,750.787452 931.100333,752.488281 926.673228,752.488281 Z M926.111704,728.806641 C924.288778,728.806641 922.758846,729.469883 921.52186,730.796387 C920.284875,732.122891 919.519909,733.98241 919.226938,736.375 L932.45936,736.375 L932.45936,736.033203 C932.329151,733.73827 931.710668,731.96013 930.603892,730.69873 C929.497115,729.437331 927.999734,728.806641 926.111704,728.806641 Z M947.174655,719.1875 L947.174655,725.583984 L952.106295,725.583984 L952.106295,729.075195 L947.174655,729.075195 L947.174655,745.457031 C947.174655,746.514979 947.394379,747.308428 947.833834,747.837402 C948.27329,748.366376 949.02198,748.630859 950.079928,748.630859 C950.600764,748.630859 951.316903,748.533204 952.228366,748.337891 L952.228366,752 C951.040209,752.325522 949.884621,752.488281 948.761569,752.488281 C946.74333,752.488281 945.221535,751.877936 944.196139,750.657227 C943.170743,749.436517 942.658053,747.703136 942.658053,745.457031 L942.658053,729.075195 L937.848483,729.075195 L937.848483,725.583984 L942.658053,725.583984 L942.658053,719.1875 L947.174655,719.1875 Z M956.079402,759.080078 L953.515926,757.322266 C955.045881,755.190094 955.843399,752.99285 955.908504,750.730469 L955.908504,746.65332 L960.327449,746.65332 L960.327449,750.193359 C960.327449,751.837248 959.924621,753.481112 959.118953,755.125 C958.313285,756.768888 957.300111,758.087235 956.079402,759.080078 Z M982.873272,716.453125 L994.494366,745.457031 L1006.11546,716.453125 L1012.19456,716.453125 L1012.19456,752 L1007.50706,752 L1007.50706,738.157227 L1007.94651,723.21582 L996.276592,752 L992.687725,752 L981.042217,723.289062 L981.506085,738.157227 L981.506085,752 L976.818585,752 L976.818585,716.453125 L982.873272,716.453125 Z M1029.57099,752.488281 C1025.99024,752.488281 1023.07686,751.312349 1020.83075,748.960449 C1018.58465,746.608549 1017.46161,743.463236 1017.46161,739.524414 L1017.46161,738.694336 C1017.46161,736.07388 1017.9621,733.734223 1018.96308,731.675293 C1019.96406,729.616363 1021.36379,728.005051 1023.1623,726.841309 C1024.96081,725.677566 1026.90985,725.095703 1029.00946,725.095703 C1032.44373,725.095703 1035.11297,726.226877 1037.01728,728.489258 C1038.92158,730.751639 1039.87372,733.990539 1039.87372,738.206055 L1039.87372,740.085938 L1021.97821,740.085938 C1022.04332,742.690117 1022.80422,744.793775 1024.26093,746.396973 C1025.71764,748.000171 1027.56902,748.801758 1029.81513,748.801758 C1031.41019,748.801758 1032.76109,748.47624 1033.86786,747.825195 C1034.97464,747.17415 1035.94305,746.311529 1036.77314,745.237305 L1039.53193,747.385742 C1037.31837,750.787452 1033.99809,752.488281 1029.57099,752.488281 Z M1029.00946,728.806641 C1027.18654,728.806641 1025.65661,729.469883 1024.41962,730.796387 C1023.18264,732.122891 1022.41767,733.98241 1022.1247,736.375 L1035.35712,736.375 L1035.35712,736.033203 C1035.22691,733.73827 1034.60843,731.96013 1033.50165,730.69873 C1032.39488,729.437331 1030.8975,728.806641 1029.00946,728.806641 Z M1056.71304,729.636719 C1056.02944,729.522786 1055.28889,729.46582 1054.49136,729.46582 C1051.52911,729.46582 1049.51904,730.727201 1048.46109,733.25 L1048.46109,752 L1043.94449,752 L1043.94449,725.583984 L1048.33902,725.583984 L1048.41226,728.635742 C1049.89339,726.275704 1051.99297,725.095703 1054.71109,725.095703 C1055.59,725.095703 1056.25731,725.209634 1056.71304,725.4375 L1056.71304,729.636719 Z M1058.1715,738.572266 C1058.1715,734.454406 1059.12364,731.178886 1061.02794,728.745605 C1062.93225,726.312325 1065.45501,725.095703 1068.5963,725.095703 C1071.81898,725.095703 1074.3336,726.235015 1076.14025,728.513672 L1076.35998,725.583984 L1080.48595,725.583984 L1080.48595,751.365234 C1080.48595,754.78322 1079.47278,757.476878 1077.4464,759.446289 C1075.42002,761.4157 1072.69788,762.400391 1069.2799,762.400391 C1067.37559,762.400391 1065.512,761.993494 1063.68908,761.179688 C1061.86615,760.365881 1060.47456,759.250984 1059.51427,757.834961 L1061.85802,755.125 C1063.79488,757.51759 1066.16302,758.713867 1068.96251,758.713867 C1071.15979,758.713867 1072.87283,758.095384 1074.10167,756.858398 C1075.33052,755.621413 1075.94494,753.879894 1075.94494,751.633789 L1075.94494,749.363281 C1074.13829,751.446625 1071.67249,752.488281 1068.54748,752.488281 C1065.45501,752.488281 1062.9526,751.243177 1061.04015,748.75293 C1059.12771,746.262683 1058.1715,742.869162 1058.1715,738.572266 Z M1062.71251,739.084961 C1062.71251,742.063491 1063.32286,744.403149 1064.54357,746.104004 C1065.76428,747.804859 1067.47325,748.655273 1069.67052,748.655273 C1072.51884,748.655273 1074.61029,747.361341 1075.94494,744.773438 L1075.94494,732.712891 C1074.56147,730.190092 1072.48629,728.928711 1069.71935,728.928711 C1067.52207,728.928711 1065.80497,729.783195 1064.56798,731.492188 C1063.331,733.20118 1062.71251,735.73208 1062.71251,739.084961 Z M1097.10554,752.488281 C1093.5248,752.488281 1090.61141,751.312349 1088.36531,748.960449 C1086.1192,746.608549 1084.99617,743.463236 1084.99617,739.524414 L1084.99617,738.694336 C1084.99617,736.07388 1085.49665,733.734223 1086.49763,731.675293 C1087.49861,729.616363 1088.89834,728.005051 1090.69685,726.841309 C1092.49536,725.677566 1094.4444,725.095703 1096.54402,725.095703 C1099.97828,725.095703 1102.64753,726.226877 1104.55183,728.489258 C1106.45614,730.751639 1107.40828,733.990539 1107.40828,738.206055 L1107.40828,740.085938 L1089.51277,740.085938 C1089.57787,742.690117 1090.33877,744.793775 1091.79548,746.396973 C1093.2522,748.000171 1095.10358,748.801758 1097.34968,748.801758 C1098.94474,748.801758 1100.29564,748.47624 1101.40242,747.825195 C1102.50919,747.17415 1103.47761,746.311529 1104.30769,745.237305 L1107.06648,747.385742 C1104.85293,750.787452 1101.53265,752.488281 1097.10554,752.488281 Z M1096.54402,728.806641 C1094.72109,728.806641 1093.19116,729.469883 1091.95418,730.796387 C1090.71719,732.122891 1089.95222,733.98241 1089.65925,736.375 L1102.89168,736.375 L1102.89168,736.033203 C1102.76147,733.73827 1102.14298,731.96013 1101.03621,730.69873 C1099.92943,729.437331 1098.43205,728.806641 1096.54402,728.806641 Z M1110.38041,738.572266 C1110.38041,734.519511 1111.34068,731.260266 1113.26127,728.794434 C1115.18185,726.328601 1117.69647,725.095703 1120.80521,725.095703 C1123.89768,725.095703 1126.3472,726.153635 1128.15385,728.269531 L1128.15385,714.5 L1132.67045,714.5 L1132.67045,752 L1128.52006,752 L1128.30033,749.167969 C1126.49368,751.381521 1123.97906,752.488281 1120.75638,752.488281 C1117.69647,752.488281 1115.2022,751.235039 1113.27347,748.728516 C1111.34475,746.221993 1110.38041,742.950541 1110.38041,738.914062 L1110.38041,738.572266 Z M1114.89701,739.084961 C1114.89701,742.079768 1115.51549,744.423494 1116.75248,746.116211 C1117.98946,747.808928 1119.69843,748.655273 1121.87943,748.655273 C1124.74403,748.655273 1126.83548,747.369479 1128.15385,744.797852 L1128.15385,732.664062 C1126.80293,730.173816 1124.72775,728.928711 1121.92826,728.928711 C1119.71471,728.928711 1117.98946,729.783195 1116.75248,731.492188 C1115.51549,733.20118 1114.89701,735.73208 1114.89701,739.084961 Z M1173.13619,745.774414 L1178.21432,725.583984 L1182.73092,725.583984 L1175.04049,752 L1171.37838,752 L1164.95748,731.980469 L1158.70748,752 L1155.04537,752 L1147.37936,725.583984 L1151.87154,725.583984 L1157.07174,745.359375 L1163.22408,725.583984 L1166.86178,725.583984 L1173.13619,745.774414 Z M1191.07414,752 L1186.55754,752 L1186.55754,725.583984 L1191.07414,725.583984 L1191.07414,752 Z M1186.19133,718.577148 C1186.19133,717.844723 1186.41512,717.22624 1186.86272,716.72168 C1187.31031,716.21712 1187.97355,715.964844 1188.85246,715.964844 C1189.73137,715.964844 1190.39868,716.21712 1190.85442,716.72168 C1191.31015,717.22624 1191.53801,717.844723 1191.53801,718.577148 C1191.53801,719.309574 1191.31015,719.919919 1190.85442,720.408203 C1190.39868,720.896487 1189.73137,721.140625 1188.85246,721.140625 C1187.97355,721.140625 1187.31031,720.896487 1186.86272,720.408203 C1186.41512,719.919919 1186.19133,719.309574 1186.19133,718.577148 Z M1203.27479,719.1875 L1203.27479,725.583984 L1208.20643,725.583984 L1208.20643,729.075195 L1203.27479,729.075195 L1203.27479,745.457031 C1203.27479,746.514979 1203.49451,747.308428 1203.93397,747.837402 C1204.37342,748.366376 1205.12211,748.630859 1206.18006,748.630859 C1206.7009,748.630859 1207.41704,748.533204 1208.3285,748.337891 L1208.3285,752 C1207.14034,752.325522 1205.98476,752.488281 1204.8617,752.488281 C1202.84346,752.488281 1201.32167,751.877936 1200.29627,750.657227 C1199.27088,749.436517 1198.75819,747.703136 1198.75819,745.457031 L1198.75819,729.075195 L1193.94862,729.075195 L1193.94862,725.583984 L1198.75819,725.583984 L1198.75819,719.1875 L1203.27479,719.1875 Z M1216.84262,728.782227 C1218.84459,726.324532 1221.44873,725.095703 1224.65512,725.095703 C1230.23783,725.095703 1233.05356,728.245086 1233.10239,734.543945 L1233.10239,752 L1228.58579,752 L1228.58579,734.519531 C1228.56951,732.615225 1228.13413,731.207361 1227.27963,730.295898 C1226.42514,729.384436 1225.09458,728.928711 1223.28793,728.928711 C1221.82308,728.928711 1220.53729,729.319332 1219.43051,730.100586 C1218.32374,730.88184 1217.46111,731.90722 1216.84262,733.176758 L1216.84262,752 L1212.32602,752 L1212.32602,714.5 L1216.84262,714.5 L1216.84262,728.782227 Z M1263.68044,737.620117 L1255.33083,737.620117 L1255.33083,752 L1250.61891,752 L1250.61891,716.453125 L1262.38649,716.453125 C1266.39042,716.453125 1269.47063,717.364574 1271.62721,719.1875 C1273.7838,721.010426 1274.86208,723.663394 1274.86208,727.146484 C1274.86208,729.360037 1274.26394,731.288729 1273.06764,732.932617 C1271.87135,734.576506 1270.20714,735.805334 1268.07497,736.619141 L1276.42458,751.707031 L1276.42458,752 L1271.39528,752 L1263.68044,737.620117 Z M1255.33083,733.787109 L1262.53298,733.787109 C1264.86046,733.787109 1266.71184,733.184902 1268.08718,731.980469 C1269.46251,730.776036 1270.15016,729.164724 1270.15016,727.146484 C1270.15016,724.949208 1269.49506,723.264654 1268.18483,722.092773 C1266.8746,720.920893 1264.98253,720.326823 1262.50856,720.310547 L1255.33083,720.310547 L1255.33083,733.787109 Z M1290.52952,752.488281 C1286.94877,752.488281 1284.03539,751.312349 1281.78929,748.960449 C1279.54318,746.608549 1278.42015,743.463236 1278.42015,739.524414 L1278.42015,738.694336 C1278.42015,736.07388 1278.92063,733.734223 1279.92161,731.675293 C1280.92259,729.616363 1282.32232,728.005051 1284.12083,726.841309 C1285.91934,725.677566 1287.86838,725.095703 1289.968,725.095703 C1293.40226,725.095703 1296.0715,726.226877 1297.97581,728.489258 C1299.88012,730.751639 1300.83226,733.990539 1300.83226,738.206055 L1300.83226,740.085938 L1282.93675,740.085938 C1283.00185,742.690117 1283.76275,744.793775 1285.21946,746.396973 C1286.67618,748.000171 1288.52756,748.801758 1290.77366,748.801758 C1292.36872,748.801758 1293.71962,748.47624 1294.8264,747.825195 C1295.93317,747.17415 1296.90159,746.311529 1297.73167,745.237305 L1300.49046,747.385742 C1298.27691,750.787452 1294.95663,752.488281 1290.52952,752.488281 Z M1289.968,728.806641 C1288.14507,728.806641 1286.61514,729.469883 1285.37815,730.796387 C1284.14117,732.122891 1283.3762,733.98241 1283.08323,736.375 L1296.31565,736.375 L1296.31565,736.033203 C1296.18544,733.73827 1295.56696,731.96013 1294.46018,730.69873 C1293.35341,729.437331 1291.85603,728.806641 1289.968,728.806641 Z M1320.28388,744.993164 C1320.28388,743.772455 1319.82408,742.824385 1318.90448,742.148926 C1317.98488,741.473467 1316.38171,740.891604 1314.09491,740.40332 C1311.80812,739.915037 1309.99336,739.329105 1308.65058,738.645508 C1307.3078,737.961911 1306.31497,737.148117 1305.67206,736.204102 C1305.02915,735.260086 1304.70771,734.137051 1304.70771,732.834961 C1304.70771,730.670237 1305.62322,728.8392 1307.45429,727.341797 C1309.28535,725.844394 1311.62501,725.095703 1314.47333,725.095703 C1317.46814,725.095703 1319.89731,725.868807 1321.76093,727.415039 C1323.62454,728.961271 1324.55634,730.93879 1324.55634,733.347656 L1320.01532,733.347656 C1320.01532,732.110671 1319.49043,731.044601 1318.44062,730.149414 C1317.39081,729.254227 1316.06839,728.806641 1314.47333,728.806641 C1312.82944,728.806641 1311.54365,729.16471 1310.61591,729.880859 C1309.68817,730.597009 1309.22431,731.532872 1309.22431,732.688477 C1309.22431,733.778977 1309.65562,734.600909 1310.51825,735.154297 C1311.38089,735.707685 1312.9393,736.236651 1315.19355,736.741211 C1317.44779,737.245771 1319.27476,737.847978 1320.6745,738.547852 C1322.07425,739.247725 1323.11184,740.090002 1323.7873,741.074707 C1324.46275,742.059412 1324.80048,743.259759 1324.80048,744.675781 C1324.80048,747.035819 1323.85648,748.92789 1321.96845,750.352051 C1320.08042,751.776212 1317.6309,752.488281 1314.61982,752.488281 C1312.50392,752.488281 1310.63219,752.113936 1309.00458,751.365234 C1307.37697,750.616533 1306.10338,749.570807 1305.18378,748.228027 C1304.26418,746.885247 1303.80439,745.432625 1303.80439,743.870117 L1308.32099,743.870117 C1308.40237,745.383797 1309.00864,746.584143 1310.13983,747.471191 C1311.27103,748.35824 1312.76434,748.801758 1314.61982,748.801758 C1316.32881,748.801758 1317.70005,748.455895 1318.73358,747.76416 C1319.76712,747.072425 1320.28388,746.148769 1320.28388,744.993164 Z M1357.55777,752 L1352.84585,752 L1334.95034,724.607422 L1334.95034,752 L1330.23843,752 L1330.23843,716.453125 L1334.95034,716.453125 L1352.89468,743.967773 L1352.89468,716.453125 L1357.55777,716.453125 L1357.55777,752 Z M1374.98302,752.488281 C1371.40227,752.488281 1368.48889,751.312349 1366.24279,748.960449 C1363.99668,746.608549 1362.87365,743.463236 1362.87365,739.524414 L1362.87365,738.694336 C1362.87365,736.07388 1363.37413,733.734223 1364.37511,731.675293 C1365.37609,729.616363 1366.77582,728.005051 1368.57433,726.841309 C1370.37284,725.677566 1372.32188,725.095703 1374.4215,725.095703 C1377.85576,725.095703 1380.525,726.226877 1382.42931,728.489258 C1384.33362,730.751639 1385.28576,733.990539 1385.28576,738.206055 L1385.28576,740.085938 L1367.39025,740.085938 C1367.45535,742.690117 1368.21625,744.793775 1369.67296,746.396973 C1371.12968,748.000171 1372.98106,748.801758 1375.22716,748.801758 C1376.82222,748.801758 1378.17312,748.47624 1379.2799,747.825195 C1380.38667,747.17415 1381.35509,746.311529 1382.18517,745.237305 L1384.94396,747.385742 C1382.73041,750.787452 1379.41013,752.488281 1374.98302,752.488281 Z M1374.4215,728.806641 C1372.59857,728.806641 1371.06864,729.469883 1369.83165,730.796387 C1368.59467,732.122891 1367.8297,733.98241 1367.53673,736.375 L1380.76915,736.375 L1380.76915,736.033203 C1380.63894,733.73827 1380.02046,731.96013 1378.91369,730.69873 C1377.80691,729.437331 1376.30953,728.806641 1374.4215,728.806641 Z M1395.48445,719.1875 L1395.48445,725.583984 L1400.41609,725.583984 L1400.41609,729.075195 L1395.48445,729.075195 L1395.48445,745.457031 C1395.48445,746.514979 1395.70417,747.308428 1396.14363,747.837402 C1396.58308,748.366376 1397.33177,748.630859 1398.38972,748.630859 C1398.91056,748.630859 1399.6267,748.533204 1400.53816,748.337891 L1400.53816,752 C1399.35,752.325522 1398.19441,752.488281 1397.07136,752.488281 C1395.05312,752.488281 1393.53133,751.877936 1392.50593,750.657227 C1391.48054,749.436517 1390.96785,747.703136 1390.96785,745.457031 L1390.96785,729.075195 L1386.15828,729.075195 L1386.15828,725.583984 L1390.96785,725.583984 L1390.96785,719.1875 L1395.48445,719.1875 Z M1421.49707,752 L1416.80957,752 L1416.80957,716.453125 L1421.49707,716.453125 L1421.49707,752 Z M1427.10592,738.572266 C1427.10592,734.519511 1428.06619,731.260266 1429.98678,728.794434 C1431.90736,726.328601 1434.42198,725.095703 1437.53072,725.095703 C1440.62319,725.095703 1443.07271,726.153635 1444.87935,728.269531 L1444.87935,714.5 L1449.39596,714.5 L1449.39596,752 L1445.24557,752 L1445.02584,749.167969 C1443.21919,751.381521 1440.70457,752.488281 1437.48189,752.488281 C1434.42198,752.488281 1431.9277,751.235039 1429.99898,748.728516 C1428.07026,746.221993 1427.10592,742.950541 1427.10592,738.914062 L1427.10592,738.572266 Z M1431.62252,739.084961 C1431.62252,742.079768 1432.241,744.423494 1433.47799,746.116211 C1434.71497,747.808928 1436.42394,748.655273 1438.60494,748.655273 C1441.46954,748.655273 1443.56099,747.369479 1444.87935,744.797852 L1444.87935,732.664062 C1443.52844,730.173816 1441.45326,728.928711 1438.65377,728.928711 C1436.44022,728.928711 1434.71497,729.783195 1433.47799,731.492188 C1432.241,733.20118 1431.62252,735.73208 1431.62252,739.084961 Z M1466.21086,752.488281 C1462.63011,752.488281 1459.71673,751.312349 1457.47063,748.960449 C1455.22452,746.608549 1454.10149,743.463236 1454.10149,739.524414 L1454.10149,738.694336 C1454.10149,736.07388 1454.60197,733.734223 1455.60295,731.675293 C1456.60393,729.616363 1458.00366,728.005051 1459.80217,726.841309 C1461.60068,725.677566 1463.54972,725.095703 1465.64934,725.095703 C1469.0836,725.095703 1471.75284,726.226877 1473.65715,728.489258 C1475.56146,730.751639 1476.51359,733.990539 1476.51359,738.206055 L1476.51359,740.085938 L1458.61809,740.085938 C1458.68319,742.690117 1459.44409,744.793775 1460.9008,746.396973 C1462.35751,748.000171 1464.2089,748.801758 1466.455,748.801758 C1468.05006,748.801758 1469.40096,748.47624 1470.50774,747.825195 C1471.61451,747.17415 1472.58293,746.311529 1473.41301,745.237305 L1476.1718,747.385742 C1473.95824,750.787452 1470.63797,752.488281 1466.21086,752.488281 Z M1465.64934,728.806641 C1463.82641,728.806641 1462.29648,729.469883 1461.05949,730.796387 C1459.82251,732.122891 1459.05754,733.98241 1458.76457,736.375 L1471.99699,736.375 L1471.99699,736.033203 C1471.86678,733.73827 1471.2483,731.96013 1470.14152,730.69873 C1469.03475,729.437331 1467.53737,728.806641 1465.64934,728.806641 Z M1496.89295,752 C1496.63253,751.479164 1496.42095,750.551439 1496.25819,749.216797 C1494.15857,751.397797 1491.65208,752.488281 1488.73865,752.488281 C1486.13447,752.488281 1483.99827,751.751798 1482.32996,750.278809 C1480.66166,748.805819 1479.82752,746.938162 1479.82752,744.675781 C1479.82752,741.925116 1480.87325,739.788907 1482.96473,738.26709 C1485.05621,736.745272 1487.99808,735.984375 1491.79041,735.984375 L1496.18494,735.984375 L1496.18494,733.90918 C1496.18494,732.330396 1495.71294,731.073084 1494.76893,730.137207 C1493.82491,729.20133 1492.43333,728.733398 1490.59412,728.733398 C1488.98279,728.733398 1487.63189,729.140295 1486.54139,729.954102 C1485.45089,730.767908 1484.90565,731.752598 1484.90565,732.908203 L1480.36463,732.908203 C1480.36463,731.589837 1480.83256,730.31625 1481.76844,729.087402 C1482.70432,727.858555 1483.97384,726.886071 1485.57703,726.169922 C1487.18023,725.453772 1488.9421,725.095703 1490.86268,725.095703 C1493.90631,725.095703 1496.29073,725.8566 1498.016,727.378418 C1499.74127,728.900235 1500.63644,730.995755 1500.70155,733.665039 L1500.70155,745.823242 C1500.70155,748.248385 1501.01079,750.177076 1501.62928,751.609375 L1501.62928,752 L1496.89295,752 Z M1489.39783,748.557617 C1490.81386,748.557617 1492.15662,748.19141 1493.42615,747.458984 C1494.69569,746.726559 1495.61528,745.77442 1496.18494,744.602539 L1496.18494,739.182617 L1492.6449,739.182617 C1487.11102,739.182617 1484.34412,740.802067 1484.34412,744.041016 C1484.34412,745.457038 1484.81612,746.563798 1485.76014,747.361328 C1486.70415,748.158858 1487.91671,748.557617 1489.39783,748.557617 Z" id="EvolvedFromGoogLeNet,MergedwithResNetIdea" fill="#FFFFFF" fill-rule="nonzero"></path>
        </g>
    </g>
</svg>